<svg id="Layer_1" data-name="Layer 1" xmlns="http://www.w3.org/2000/svg" viewBox="0 0 150.28 148.52"><defs><style>.cls-1{fill:#fff;}</style></defs><title>github-white</title><path class="cls-1" d="M84.53,142.26a3.13,3.13,0,0,1-3.13-3.13V115.84c0-5.63-.72-9.62-2.27-12.55a3.12,3.12,0,0,1,2.06-4.51c18.56-4.28,31.52-17.86,31.52-33,0-7.51-3.09-14.68-8.92-20.74a3.13,3.13,0,0,1-.59-3.49c2.33-5,1.83-11.86-.93-16A30.83,30.83,0,0,0,90.8,33.62a3.11,3.11,0,0,1-3.47.92,54.29,54.29,0,0,0-36.9,0A3.13,3.13,0,0,1,47,33.63a30.8,30.8,0,0,0-11.48-8.07c-2.76,4.1-3.26,10.94-.93,16A3.12,3.12,0,0,1,34,45C28.13,51.06,25,58.24,25,65.75c0,14.45,11.67,27.46,29,32.37a3.14,3.14,0,0,1,2.28,3v2.19c0,3.92-1.57,6.13-2.89,7.3a9.37,9.37,0,0,1-6.89,2.07H46.51c-5.16,0-9-2.87-12.79-5.65a47.11,47.11,0,0,0-6-4c0.48,0.65,1,1.32,1.44,2C33.84,111.56,39.15,119,47,119h6.26a3.13,3.13,0,0,1,3.13,3.13v17a3.13,3.13,0,0,1-1.17,2.44,3.19,3.19,0,0,1-2.64.61A75.12,75.12,0,1,1,144,68.88a75.58,75.58,0,0,1-58.81,73.31A3.11,3.11,0,0,1,84.53,142.26Zm1.62-38.33a39.46,39.46,0,0,1,1.52,11.9v19.27A68.86,68.86,0,1,0,0,68.88a69.32,69.32,0,0,0,50.09,66.23v-9.88H47c-11,0-17.61-9.17-22.91-16.55-3-4.18-6.11-8.5-8.4-8.5a3.13,3.13,0,0,1,0-6.26c10.9,0,16.94,4.48,21.79,8.08,3.36,2.49,6,4.45,9.52,4.45a3.49,3.49,0,0,0,2.37-.54,3.52,3.52,0,0,0,.76-2.45c-18.82-6.18-31.31-21.09-31.31-37.7a35.39,35.39,0,0,1,9.29-23.58c-2.69-7.78-1-17.29,4.15-22.47a3.09,3.09,0,0,1,3-.81,36.16,36.16,0,0,1,15,9.09,60.77,60.77,0,0,1,37.2,0,36.16,36.16,0,0,1,15-9.09,3.09,3.09,0,0,1,3,.81c5.18,5.18,6.83,14.68,4.15,22.46A35.35,35.35,0,0,1,119,65.75C119,82.83,105.65,98.12,86.15,103.94Z" transform="translate(6.26 6.26)"/></svg>