<svg id="Layer_1" data-name="Layer 1" xmlns="http://www.w3.org/2000/svg" viewBox="0 0 207.38 207.38"><defs><style>.cls-1{fill:#fff;}</style></defs><title>in-white</title><g id="Flat_3" data-name="Flat 3"><path class="cls-1" d="M172.12,165.72V115.31c0-27-14.42-39.58-33.64-39.58-15.52,0-22.46,8.54-26.34,14.52V77.8H82.91c0.39,8.25,0,87.93,0,87.93h29.23V116.62a20,20,0,0,1,1-7.13c2.11-5.25,6.92-10.69,15-10.69,10.58,0,14.81,8.06,14.81,19.88v47h29.23Zm-120-99.93c10.19,0,16.54-6.75,16.54-15.2C68.48,42,62.32,35.41,52.33,35.41S35.8,42,35.8,50.6c0,8.44,6.35,15.2,16.16,15.2h0.17Zm14.61,99.93V77.8H37.51v87.93H66.74Z" transform="translate(0 0.19)"/></g><path class="cls-1" d="M103.69-.19A103.69,103.69,0,1,0,207.38,103.5,103.69,103.69,0,0,0,103.69-.19Zm0,199.54a95.85,95.85,0,1,1,95.85-95.85A95.85,95.85,0,0,1,103.69,199.35Z" transform="translate(0 0.19)"/></svg>