<?xml version="1.0" encoding="utf-8"?>
<!-- Generator: Adobe Illustrator 19.0.0, SVG Export Plug-In . SVG Version: 6.00 Build 0)  -->
<svg version="1.1" id="Layer_1" xmlns="http://www.w3.org/2000/svg" xmlns:xlink="http://www.w3.org/1999/xlink" x="0px" y="0px"
	 viewBox="0 0 225.5 225.5" style="enable-background:new 0 0 225.5 225.5;" xml:space="preserve">
<style type="text/css">
	.st0{fill:#103E9B;}
	.st1{fill:#FFFF00;}
	.st2{fill:#00FF00;}
	.st3{fill:#FCFCFC;}
</style>
<g id="XMLID_1_">
	<g id="XMLID_12_">
		<path id="XMLID_5_" class="st0" d="M112.8,0C175,0,225.5,50.5,225.5,112.8S175,225.5,112.8,225.5c-29.4,0-56.2-11.3-76.2-29.7
			c-0.2-0.3-0.4-0.5-0.6-0.7c-1.1-1-2-1.8-3-2.7c0,0,0,0-0.1,0c-0.5-0.5-1-1-1.5-1.5c-0.3-0.3-0.6-0.6-0.8-0.9
			c-0.4-0.5-0.9-1-1.4-1.4C11.1,168.5,0,141.9,0,112.8C0,50.5,50.5,0,112.8,0z"/>
	</g>
	<g id="XMLID_13_">
	</g>
</g>
<rect id="XMLID_4_" x="71.4" y="123.9" class="st1" width="18" height="57.5"/>
<rect id="XMLID_15_" x="53.4" y="129.9" class="st1" width="18" height="57.5"/>
<rect id="XMLID_7_" x="89.4" y="118.4" class="st1" width="18" height="63"/>
<rect id="XMLID_8_" x="107.4" y="109.9" class="st2" width="18" height="71.5"/>
<g id="XMLID_9_">
	<path id="XMLID_24_" class="st3" d="M189.9,99.2c-19-14.6-20.7-14.1-35.5-25c-8.6-6.4-8-28.5,21-30.5c18-1.2,28.7,8,37.2,14.5
		c-5.2-9.1-11.1-17-18.9-24.3c-0.2-0.1-0.3-0.3-0.4-0.4c-3.7-1.1-7.7-2.2-12-3.3c-32.9-7.6-63.3,19-53.3,43.3
		c6.9,16.8,32.2,26.7,39.4,35.2c7.3,8.5,12,12.5,5,29.5c-8.1,19.6-49.2,38.6-91.1,38.6c-26.3,0-50.5-5.4-68.7-12.2
		c0.1,0.1,0.1,0.2,0,0.3c0.4,0.5,0.6,1.1,0.8,1.8c0.2,0.2,0.4,0.5,0.5,0.8c0.1,0.2,0.3,0.3,0.4,0.5c0.3,0.5,0.6,1.2,0.9,2
		c0.7,1.3,1.7,2.6,2.4,3.7c0.2,0.3,0.3,0.6,0.4,1c0,0,0.1,0.1,0.1,0.1c0.2,0.2,0.5,0.5,0.7,0.8c1.9,2.7,3.3,5.7,5.4,8.3
		c1.9,2.3,4.5,3.8,6.4,6.1c1.7,2.1,3.4,3.5,5.4,5.3c0.2,0.2,0.4,0.5,0.6,0.7c13.6,2.1,27.5,3.3,41.9,3.3
		c74.9,0,111.9-29.7,122.1-60.4C203.9,128.7,208.4,113.4,189.9,99.2z"/>
</g>
</svg>
