<svg id="Layer_1" data-name="Layer 1" xmlns="http://www.w3.org/2000/svg" viewBox="0 0 500 500"><defs><style>.cls-1{fill:#fff;}</style></defs><title>pen-white</title><path class="cls-1" d="M250,0C111.93,0,0,111.93,0,250S111.93,500,250,500,500,388.08,500,250,388.07,0,250,0Zm0,479C123.17,479,20,375.84,20,249S123.17,19,250,19,480,122.21,480,249,376.8,479,250,479Z"/><path class="cls-1" d="M423.65,194.1a4.94,4.94,0,0,0-.12-0.65c-0.07-.42-0.15-0.84-0.26-1.25-0.06-.25-0.16-0.48-0.23-0.72s-0.24-.73-0.38-1.09-0.22-.49-0.33-0.73-0.32-.67-0.51-1-0.28-.47-0.42-0.69-0.41-.61-0.63-0.91l-0.51-.65c-0.24-.27-0.49-0.55-0.75-0.8s-0.39-.4-0.59-0.59-0.56-.48-0.85-0.71-0.44-.35-0.68-0.51l-0.25-.18L258.28,77.72a14.93,14.93,0,0,0-16.57,0L82.86,183.62l-0.25.18c-0.23.16-.45,0.34-0.67,0.51s-0.58.47-.85,0.71-0.4.38-.6,0.59-0.51.53-.74,0.8-0.35.43-.52,0.65-0.43.59-.63,0.91l-0.43.69c-0.14.23-.35,0.65-0.51,1s-0.23.48-.33,0.73-0.27.72-.38,1.09-0.16.47-.23,0.72c-0.11.41-.18,0.83-0.26,1.25a4.94,4.94,0,0,1-.12.65A14.5,14.5,0,0,0,76.2,196v105.9a14.58,14.58,0,0,0,.14,2,3.6,3.6,0,0,0,.12.64c0.08,0.42.15,0.84,0.26,1.25,0.07,0.25.16,0.49,0.23,0.72s0.24,0.73.38,1.1,0.22,0.49.33,0.73,0.32,0.67.51,1,0.28,0.46.43,0.69,0.41,0.61.63,0.91,0.34,0.44.52,0.65,0.48,0.55.74,0.8,0.39,0.4.6,0.58,0.55,0.49.85,0.71,0.44,0.35.67,0.51l0.25,0.18,158.85,105.9a14.91,14.91,0,0,0,16.57,0l158.85-105.9,0.25-.18c0.23-.16.45-0.34,0.68-0.51s0.57-.47.85-0.71a6.56,6.56,0,0,0,.59-0.58c0.19-.2.51-0.53,0.75-0.8a5.93,5.93,0,0,0,.51-0.65c0.16-.23.43-0.59,0.63-0.91l0.42-.69c0.19-.33.35-0.66,0.51-1s0.23-.48.33-0.73,0.26-.73.38-1.1,0.17-.48.23-0.72c0.11-.41.19-0.83,0.26-1.25a4.8,4.8,0,0,1,.12-0.64,15.57,15.57,0,0,0,.13-2V196A15.28,15.28,0,0,0,423.65,194.1Zm-158.72-76,117,78-52.27,35-64.75-43.31V118.06Zm-29.87,0v69.66L170.31,231,118,196ZM106.08,224l37.37,25-37.37,25V224Zm129,155.93-117-78,52.27-35,64.75,43.31V379.9h0ZM250,284.33L197.17,249,250,213.66,302.82,249Zm14.94,95.61V310.28L329.68,267l52.27,35ZM393.91,274l-37.36-25,37.36-25v50h0Z"/></svg>